<svg width="24" height="24" viewBox="0 0 24 24" fill="none" xmlns="http://www.w3.org/2000/svg">
<path d="M2 7C2 4.79086 3.79086 3 6 3H8.75736C9.81823 3 10.8356 3.42143 11.5858 4.17157L11.8284 4.41421C12.2035 4.78929 12.7122 5 13.2426 5H18C20.2091 5 22 6.79086 22 9V9.99963C21.1643 9.37194 20.1256 9 19 9H5C3.87439 9 2.83566 9.37194 2 9.99963V7Z" fill="black"/>
<path d="M2 14V16C2 18.2091 3.79086 20 6 20H18C20.2091 20 22 18.2091 22 16V14C22 12.3431 20.6569 11 19 11H5C3.34315 11 2 12.3431 2 14Z" fill="black"/>
</svg>
