<svg width="16" height="16" viewBox="0 0 24 24" fill="none" xmlns="http://www.w3.org/2000/svg">
<path fill-rule="evenodd" clip-rule="evenodd" d="M18 13C18.5523 13 19 13.4477 19 14V16H21C21.5523 16 22 16.4477 22 17C22 17.5523 21.5523 18 21 18H19V20C19 20.5523 18.5523 21 18 21C17.4477 21 17 20.5523 17 20V18H15C14.4477 18 14 17.5523 14 17C14 16.4477 14.4477 16 15 16H17V14C17 13.4477 17.4477 13 18 13Z" fill="black"/>
<path d="M8.73241 3C9.85868 3 10.9104 3.56288 11.5352 4.5C12.1599 5.43712 13.2117 6 14.338 6H18C20.2091 6 22 7.79086 22 10V12.5278C20.9385 11.5777 19.5367 11 18 11C14.6863 11 12 13.6863 12 17C12 18.0929 12.2922 19.1175 12.8027 20H6C3.79086 20 2 18.2091 2 16V7C2 4.79086 3.79086 3 6 3H8.73241Z" fill="black"/>
</svg>
