<svg width="16" height="16" viewBox="0 0 24 24" fill="none" xmlns="http://www.w3.org/2000/svg">
<path d="M22.1022 17.8595C22.6681 17.0492 23 16.0634 23 15C23 12.5603 21.2527 10.5287 18.9412 10.0884C18.4945 6.65314 15.5571 4 12 4C10.9039 4 9.86684 4.25189 8.94348 4.70081L22.1022 17.8595Z" fill="black"/>
<path d="M3.70711 2.29289C3.31658 1.90237 2.68342 1.90237 2.29289 2.29289C1.90237 2.68342 1.90237 3.31658 2.29289 3.70711L5.99188 7.40609C5.84592 7.64966 5.71429 7.90293 5.5982 8.16473C2.96039 8.79641 1 11.1685 1 13.9999C1 17.3136 3.68629 19.9999 7 19.9999H18C18.1874 19.9999 18.3726 19.9895 18.5551 19.9693L20.2929 21.7071C20.6834 22.0976 21.3166 22.0976 21.7071 21.7071C22.0976 21.3166 22.0976 20.6834 21.7071 20.2929L19.6152 18.2009L19.6058 18.1914L7.99385 6.57951L7.98433 6.57012L3.70711 2.29289Z" fill="black"/>
</svg>
 