<svg width="16" height="16" viewBox="0 0 24 24" fill="none" xmlns="http://www.w3.org/2000/svg">
<path d="M19.0275 12C19.0275 8.13401 15.8935 5 12.0275 5C10.0535 5 8.6248 5.67948 7.24107 7H9.00014C9.55242 7 10.0001 7.44772 10.0001 8C10.0001 8.55228 9.55242 9 9.00014 9H6.00014C4.89557 9 4.00014 8.10457 4.00014 7V4C4.00014 3.44772 4.44785 3 5.00014 3C5.55242 3 6.00014 3.44772 6.00014 4V5.42301C7.6223 3.9219 9.47602 3 12.0275 3C16.998 3 21.0275 7.02944 21.0275 12C21.0275 16.9706 16.998 21 12.0275 21C8.10726 21 4.77489 18.4941 3.53986 14.9999C3.35581 14.4792 3.62873 13.9079 4.14945 13.7238C4.67017 13.5398 5.24149 13.8127 5.42553 14.3334C6.38696 17.0536 8.9812 19 12.0275 19C15.8935 19 19.0275 15.866 19.0275 12Z" fill="black"/>
</svg>
