<svg width="16" height="16" viewBox="0 0 16 16" fill="none" xmlns="http://www.w3.org/2000/svg">
<path fill-rule="evenodd" clip-rule="evenodd" d="M8 1.33334C8.23527 1.33334 8.45312 1.45735 8.57324 1.65965L14.9066 12.3263C15.0289 12.5324 15.0313 12.7882 14.9127 12.9965C14.7942 13.2047 14.573 13.3333 14.3333 13.3333H1.66667C1.42703 13.3333 1.20584 13.2047 1.08729 12.9965C0.968745 12.7882 0.971089 12.5324 1.09343 12.3263L7.42676 1.65965C7.54688 1.45735 7.76473 1.33334 8 1.33334ZM8 6.00001C8.36819 6.00001 8.66667 6.29849 8.66667 6.66668V8.00001C8.66667 8.3682 8.36819 8.66668 8 8.66668C7.63181 8.66668 7.33333 8.3682 7.33333 8.00001V6.66668C7.33333 6.29849 7.63181 6.00001 8 6.00001ZM7.16667 10C7.16667 9.53977 7.53976 9.16668 8 9.16668C8.46024 9.16668 8.83333 9.53977 8.83333 10C8.83333 10.4602 8.46024 10.8333 8 10.8333C7.53976 10.8333 7.16667 10.4602 7.16667 10Z" fill="black"/>
</svg>
